HIERARCHY
ROOT root
{
	OFFSET	0	13.1	24.9
	CHANNELS 6  Xposition Yposition Zposition Xrotation Yrotation Zrotation
	JOINT spine_1
	{
		OFFSET	0	9.99999	0
		CHANNELS 3  Xrotation Yrotation Zrotation
		JOINT spine_2
		{
			OFFSET	0	112	-10
			CHANNELS 3  Xrotation Yrotation Zrotation
			JOINT spine_3
			{
				OFFSET	0	206.5	19.3
				CHANNELS 3  Xrotation Yrotation Zrotation
				JOINT spine_4
				{
					OFFSET	0	110.4	14.6
					CHANNELS 3  Xrotation Yrotation Zrotation
					JOINT neck_1
					{
						OFFSET	0	71.8	-50.3
						CHANNELS 3  Xrotation Yrotation Zrotation
						JOINT neck_2
						{
							OFFSET	0	86.2	-25.8
							CHANNELS 3  Xrotation Yrotation Zrotation
							JOINT head_ee
							{
								OFFSET	0	179.8	-8.7
								CHANNELS 3  Xrotation Yrotation Zrotation
								End Site
								{
									OFFSET	1	0	0
								}
							}
						}
					}
					JOINT left_clavicle
					{
						OFFSET	-43.2	22.4	-70.8
						CHANNELS 3  Xrotation Yrotation Zrotation
						JOINT left_shoulder
						{
							OFFSET	-93.9	-5.79999	48.7
							CHANNELS 3  Xrotation Yrotation Zrotation
							JOINT left_elbow
							{
								OFFSET	-291.4	-30.8	15.2
								CHANNELS 3  Xrotation Yrotation Zrotation
								JOINT left_lowarm_twist
								{
									OFFSET	-110.7	-3.89999	13.6
									CHANNELS 3  Xrotation Yrotation Zrotation
									JOINT left_hand
									{
										OFFSET	-110.7	-3.89999	13.6
										CHANNELS 3  Xrotation Yrotation Zrotation
										JOINT left_ee
										{
											OFFSET	-80.8	-5.10001	12.1
											CHANNELS 3  Xrotation Yrotation Zrotation
											End Site
											{
												OFFSET	1	0	0
											}
										}
									}
								}
							}
						}
					}
					JOINT right_clavicle
					{
						OFFSET	43.2	22.4	-70.8
						CHANNELS 3  Xrotation Yrotation Zrotation
						JOINT right_shoulder
						{
							OFFSET	93.9	-5.79999	48.7
							CHANNELS 3  Xrotation Yrotation Zrotation
							JOINT right_elbow
							{
								OFFSET	291.4	-30.8	15.2
								CHANNELS 3  Xrotation Yrotation Zrotation
								JOINT right_lowarm_twist
								{
									OFFSET	110.7	-3.89999	13.6
									CHANNELS 3  Xrotation Yrotation Zrotation
									JOINT right_hand
									{
										OFFSET	110.7	-3.89999	13.6
										CHANNELS 3  Xrotation Yrotation Zrotation
										JOINT right_ee
										{
											OFFSET	80.8	-5.10001	12.1
											CHANNELS 3  Xrotation Yrotation Zrotation
											End Site
											{
												OFFSET	1	0	0
											}
										}
									}
								}
							}
						}
					}
				}
			}
		}
	}
	JOINT left_hip
	{
		OFFSET	-82.8	-127.5	0.300001
		CHANNELS 3  Xrotation Yrotation Zrotation
		JOINT left_knee
		{
			OFFSET	-28.2	-396.7	2.2
			CHANNELS 3  Xrotation Yrotation Zrotation
			JOINT left_ankle
			{
				OFFSET	-11.7	-411.3	35.4
				CHANNELS 3  Xrotation Yrotation Zrotation
				JOINT left_toes
				{
					OFFSET	0	-60	-88.6
					CHANNELS 3  Xrotation Yrotation Zrotation
					JOINT left_foot_ee
					{
						OFFSET	-22.5	-16.5	-42.2
						CHANNELS 3  Xrotation Yrotation Zrotation
						End Site
						{
							OFFSET	1	0	0
						}
					}
				}
			}
		}
	}
	JOINT right_hip
	{
		OFFSET	82.8	-127.5	0.300001
		CHANNELS 3  Xrotation Yrotation Zrotation
		JOINT right_knee
		{
			OFFSET	28.2	-396.7	2.2
			CHANNELS 3  Xrotation Yrotation Zrotation
			JOINT right_ankle
			{
				OFFSET	11.7	-411.3	35.4
				CHANNELS 3  Xrotation Yrotation Zrotation
				JOINT right_toes
				{
					OFFSET	0	-60	-88.6
					CHANNELS 3  Xrotation Yrotation Zrotation
					JOINT right_foot_ee
					{
						OFFSET	22.5	-16.5	-42.2
						CHANNELS 3  Xrotation Yrotation Zrotation
						End Site
						{
							OFFSET	1	0	0
						}
					}
				}
			}
		}
	}
}
MOTION
Frames: 8
Frame Time: 0.02
2544.55540141 755.269 -1596.06672208 20.8068424769 82.0501353166 -11.0021729576 0.401376 -0.627454 -3.63399 0.408635 -0.395101 -3.6665 0.437073 0.356557 -3.67044 0.418348 -0.22719 -3.6807 -10.3531 8.57424 5.95691 -10.3108 12.1795 7.96051 -0.0 0.0 -0.0 7.25331 -7.44165 14.0086 -24.7847 -18.0239 67.682 0.603718 -16.6502 0.0883437 57.7534 -1.57805 -6.89685 1.53103 4.54765 12.072 -0.0 0.0 -0.0 -1.77883 -3.2603 2.94211 1.36924 33.5928 -67.3228 1.22999 31.3528 -0.345202 11.2516 -0.258538 1.41174 -0.225745 -6.56886 -1.26715 0.0 0.0 0.0 0.785859 -3.308 -12.1671 -24.4787 0.215654 3.72179 38.6825 18.6505 -4.876 23.0858 -0.0 -0.0 -0.0 0.0 -0.0 14.6887 20.9373 -20.7974 -10.3962 -0.286487 -1.56758 26.8184 -8.89073 3.54172 -22.3973 0.0 0.0 0.0 0.0 0.0 
2531.6578232 755.568 -1592.63696262 21.9736337271 82.5534580865 -13.1754357533 0.423305 -0.385498 -3.36451 0.429585 -0.17075 -3.38219 0.442051 0.518607 -3.3466 0.426425 -0.0161186 -3.38646 -10.3275 8.51406 5.52364 -10.3002 12.353 7.5248 -0.0 0.0 -0.0 6.88074 -6.28366 13.2644 -25.1552 -18.2688 68.1123 0.520095 -14.4477 0.0659234 57.2551 -1.53574 -6.84902 1.48431 4.66452 11.8022 -0.0 0.0 -0.0 -1.56483 -4.19754 2.39962 2.10867 32.1222 -67.6335 1.3265 33.3076 -0.396819 11.2028 -0.25802 1.40553 -0.389798 -5.9052 0.0837631 0.0 0.0 0.0 3.20848 -2.22129 -12.4118 -20.8645 0.28436 3.17153 36.0574 21.0917 -4.67174 22.2045 -0.0 -0.0 -0.0 0.0 -0.0 12.1853 20.7948 -19.6428 -7.81804 -0.242066 -1.17449 26.1427 -9.25636 3.46589 -23.114 0.0 0.0 0.0 0.0 0.0 
2505.47865887 758.112 -1584.31114674 25.1895388042 81.0288164412 -16.8853041917 0.286069 -0.101557 -3.18239 0.291698 0.101048 -3.18241 0.288028 0.752896 -3.0938 0.274763 0.255097 -3.17378 -10.4945 8.26195 5.31241 -10.4729 12.0425 7.27227 -0.0 0.0 -0.0 6.0306 -3.2796 11.6073 -25.7696 -18.4462 69.382 0.419388 -11.7366 0.0431051 56.6429 -1.48433 -6.78975 1.44666 4.8964 11.6382 -0.0 0.0 -0.0 -1.13611 -5.43039 1.42887 2.91018 30.2337 -67.4701 1.4474 35.6383 -0.465263 11.1029 -0.25694 1.39281 -0.565925 -4.7831 1.71792 0.0 0.0 0.0 6.58746 -1.16973 -13.0081 -16.3134 0.321317 2.4744 32.2729 24.897 -4.36252 21.4366 -0.0 -0.0 -0.0 0.0 -0.0 5.47695 22.0833 -17.1095 -4.71067 -0.165087 -0.703895 26.7332 -9.5623 3.53406 -23.3337 0.0 0.0 0.0 0.0 0.0 
2493.72973673 760.607 -1576.93213725 28.7640815525 81.3649206239 -20.0275147579 0.293437 -0.030823 -3.18897 0.299078 0.172057 -3.18448 0.291345 0.822736 -3.08127 0.278245 0.32604 -3.17243 -9.64825 8.73669 6.25175 -9.58669 12.1725 8.2204 -0.0 0.0 -0.0 5.84208 -2.44614 11.2513 -26.5307 -18.4375 69.6337 0.390724 -10.9545 0.0374662 56.4675 -1.46972 -6.77266 1.32957 6.59769 11.5042 -0.0 0.0 -0.0 -0.792527 -5.17058 0.835912 2.7435 29.739 -67.5917 1.48137 36.2699 -0.485209 10.7886 -0.253401 1.35282 -0.413568 -4.56333 0.810217 0.0 0.0 0.0 6.7138 -1.24365 -14.215 -15.8862 0.321941 2.40885 27.1686 25.725 -3.78954 19.0413 -0.0 -0.0 -0.0 0.0 -0.0 2.79621 22.0101 -17.5896 0.543934 0.02278 0.0803615 24.4426 -9.64692 3.27013 -24.235 0.0 0.0 0.0 0.0 0.0 
2475.37217137 756.8 -1563.78948021 29.4654928029 80.9360721591 -21.1122973394 0.203709 -0.0605388 -3.0063 0.208728 0.130795 -3.00407 0.203652 0.749614 -2.91206 0.191928 0.280519 -2.99381 -9.44631 8.14572 4.82896 -9.42382 12.0021 6.6767 -0.0 0.0 -0.0 5.31609 0.303109 10.286 -28.3586 -18.1257 70.3524 0.399298 -11.1889 0.0391127 56.0079 -1.43169 -6.7277 1.25797 6.11819 10.8441 -0.0 0.0 -0.0 -0.60518 -4.38162 0.596087 2.87838 29.0956 -67.4551 1.5581 37.6595 -0.531352 11.8618 -0.26458 1.48944 -0.710249 -4.00025 3.00721 0.0 0.0 0.0 7.40715 -0.28924 -14.0606 -15.5046 0.322085 2.3503 25.7471 27.6711 -3.66082 20.7196 -0.0 -0.0 -0.0 0.0 -0.0 2.7346 20.2422 -17.3158 0.0601809 0.00248253 0.00890163 26.5507 -9.98246 3.5148 -25.3373 0.0 0.0 0.0 0.0 0.0 
2457.69107651 755.274 -1550.87003285 19.6963249418 80.0978087687 -10.5417459872 0.389603 -0.404773 -3.40526 0.396034 -0.187397 -3.42408 0.409757 0.512701 -3.3907 0.393717 -0.0289046 -3.42908 -8.28182 7.78479 5.42633 -8.22329 10.741 7.07959 -0.0 0.0 -0.0 4.51576 5.39502 8.90074 -28.7439 -18.68 71.9166 0.645093 -17.7219 0.10057 54.5159 -1.31074 -6.57966 0.76304 7.769 8.20863 -0.0 0.0 -0.0 -1.55458 0.123187 3.0225 1.01087 30.2257 -67.4518 1.57814 38.0143 -0.543647 13.8676 -0.278606 1.74525 -0.889119 -5.13956 3.68746 0.0 0.0 0.0 6.75241 1.67168 -13.4117 -12.0429 0.305583 1.8195 19.482 27.6167 -2.84496 21.0164 -0.0 -0.0 -0.0 0.0 -0.0 1.79212 19.2389 -16.3851 2.32687 0.10279 0.342229 21.6937 -8.99478 2.94027 -28.3987 0.0 0.0 0.0 0.0 0.0 
2457.41519265 755.274 -1549.63135565 20.1033900246 80.292148126 -10.954844574 0.389603 -0.404773 -3.40526 0.396034 -0.187397 -3.42408 0.409757 0.512701 -3.3907 0.393717 -0.0289046 -3.42908 -8.28182 7.78479 5.42633 -8.22329 10.741 7.07959 -0.0 0.0 -0.0 4.51576 5.39502 8.90074 -28.7439 -18.68 71.9166 0.645093 -17.7219 0.10057 54.5159 -1.31074 -6.57966 0.76304 7.769 8.20863 -0.0 0.0 -0.0 -1.55458 0.123187 3.0225 1.01087 30.2257 -67.4518 1.57814 38.0143 -0.543647 13.8676 -0.278606 1.74525 -0.889119 -5.13956 3.68746 0.0 0.0 0.0 6.75241 1.67168 -13.4117 -12.0429 0.305583 1.8195 19.482 27.6167 -2.84496 21.0164 -0.0 -0.0 -0.0 0.0 -0.0 1.79212 19.2389 -16.3851 2.32687 0.10279 0.342229 21.6937 -8.99478 2.94027 -28.3987 0.0 0.0 0.0 0.0 0.0 
2456.87114865 755.274 -1547.12437326 20.9782791343 80.6833985255 -11.8419251469 0.389603 -0.404773 -3.40526 0.396034 -0.187397 -3.42408 0.409757 0.512701 -3.3907 0.393717 -0.0289046 -3.42908 -8.28182 7.78479 5.42633 -8.22329 10.741 7.07959 -0.0 0.0 -0.0 4.51576 5.39502 8.90074 -28.7439 -18.68 71.9166 0.645093 -17.7219 0.10057 54.5159 -1.31074 -6.57966 0.76304 7.769 8.20863 -0.0 0.0 -0.0 -1.55458 0.123187 3.0225 1.01087 30.2257 -67.4518 1.57814 38.0143 -0.543647 13.8676 -0.278606 1.74525 -0.889119 -5.13956 3.68746 0.0 0.0 0.0 6.75241 1.67168 -13.4117 -12.0429 0.305583 1.8195 19.482 27.6167 -2.84496 21.0164 -0.0 -0.0 -0.0 0.0 -0.0 1.79212 19.2389 -16.3851 2.32687 0.10279 0.342229 21.6937 -8.99478 2.94027 -28.3987 0.0 0.0 0.0 0.0 0.0 
